<svg width="160" height="24" viewBox="0 0 160 24" fill="none" xmlns="http://www.w3.org/2000/svg">
<path d="M13.8167 8.65834L14.9833 9.82501C15.35 10.1917 15.525 10.6167 15.5083 11.0917C15.4917 11.5667 15.3 11.9833 14.9417 12.3417L13.8083 13.475C13.475 13.8083 13.0667 13.9667 12.575 13.9667C12.0833 13.9667 11.675 13.7917 11.3417 13.4583L10.175 12.2917C9.84166 11.9583 9.675 11.5417 9.66666 11.0583C9.66666 10.5667 9.825 10.1583 10.1583 9.82501L11.2917 8.70001C11.625 8.36668 12.0417 8.19168 12.5417 8.17501C13.05 8.15001 13.4667 8.30834 13.8167 8.65834Z" fill="white"/>
<path d="M14.6417 16.8167C14.2917 16.475 14.1167 16.0333 14.1167 15.5167C14.1167 15 14.2917 14.5667 14.6417 14.225L15.75 13.1167C16.1 12.775 16.5333 12.5917 17.05 12.5917C17.5667 12.5917 18 12.7667 18.35 13.1083L20.7583 15.525L19.975 16.3083L17.5583 13.8917C17.4333 13.7667 17.275 13.7083 17.0833 13.7083C16.8583 13.7083 16.6917 13.7833 16.5583 13.9167L15.45 15.025C15.3167 15.1583 15.25 15.325 15.25 15.525C15.25 15.725 15.3167 15.8917 15.4417 16.0167L17.8583 18.4333L17.0583 19.2333L14.6417 16.8167Z" fill="white"/>
<path d="M8.09167 9.49167C7.575 9.49167 7.14167 9.31667 6.79167 8.97501L4.375 6.55834L5.15833 5.77501L7.575 8.19167C7.7 8.31667 7.85833 8.37501 8.05 8.37501C8.275 8.36667 8.44167 8.30001 8.575 8.16667L9.68333 7.05834C9.81667 6.92501 9.88333 6.75834 9.88333 6.55834C9.88333 6.35834 9.81667 6.20001 9.69167 6.06667L7.275 3.65001L8.075 2.85001L10.4917 5.26667C10.8417 5.61667 11.0167 6.05001 11.0167 6.56667C11.0167 7.08334 10.8417 7.51667 10.4917 7.85834L9.38333 8.96667C9.04167 9.31667 8.60833 9.49167 8.09167 9.49167Z" fill="white"/>
<path d="M17.05 9.49167C16.5333 9.49167 16.1 9.31667 15.75 8.96667L14.6417 7.85834C14.2917 7.51667 14.1167 7.07501 14.1167 6.56667C14.1167 6.05001 14.2917 5.61667 14.6417 5.26667L17.0583 2.85001L17.8417 3.63334L15.425 6.05001C15.3 6.17501 15.2333 6.34167 15.2417 6.54167C15.25 6.75001 15.3167 6.91667 15.45 7.05001L16.5583 8.15834C16.6917 8.29167 16.8583 8.35834 17.05 8.35834C17.2583 8.35834 17.4167 8.29167 17.5417 8.16667L19.9583 5.75001L20.7583 6.55001L18.3417 8.96667C18 9.31667 17.5583 9.49167 17.05 9.49167Z" fill="white"/>
<path d="M7.3 18.45L9.71666 16.0333C9.84166 15.9083 9.90833 15.7417 9.9 15.5417C9.9 15.3333 9.825 15.1667 9.69167 15.0333L8.58333 13.9167C8.45 13.7833 8.29166 13.7167 8.09166 13.7167C7.88333 13.7167 7.725 13.775 7.6 13.9083L5.18333 16.325L4.38333 15.525L6.8 13.1083C7.14166 12.7583 7.58333 12.5833 8.1 12.5833C8.61666 12.5833 9.05 12.7583 9.4 13.1083L10.5083 14.2167C10.85 14.5583 11.0333 15 11.0333 15.5083C11.0333 16.025 10.8583 16.4583 10.5083 16.8L8.1 19.2167L7.3 18.45Z" fill="white"/>
<path d="M80.6833 16.5H71.35H71.125C70.275 16.5 69.5917 16.225 69.075 15.6667C68.5583 15.1083 68.3 14.3833 68.3 13.4833V8.4C68.3 7.63334 68.5833 6.975 69.15 6.41667C69.7167 5.85834 70.3833 5.58334 71.15 5.58334H80.675V2.99167H71.1583C69.675 2.99167 68.3917 3.525 67.325 4.58334C66.2583 5.64167 65.7167 6.91667 65.7167 8.4V13.4833C65.7167 15.0833 66.2167 16.4167 67.225 17.5C68.2333 18.5833 69.5417 19.125 71.1583 19.125H80.6833V16.5Z" fill="white"/>
<path d="M50.225 6.425C50.7917 5.86667 51.4583 5.59167 52.225 5.59167H61.75V3H52.225C50.7417 3 49.4583 3.53333 48.3917 4.59167C47.325 5.65 46.7833 6.925 46.7833 8.40833V13.4917C46.7833 15.0917 47.2833 16.425 48.2917 17.5083C49.2917 18.5917 50.6083 19.1333 52.225 19.1333H61.75V16.5083H52.4167H52.1917C51.3417 16.5083 50.6583 16.2333 50.1417 15.675C49.625 15.1167 49.375 14.3917 49.375 13.4917V12.1667H56.75V9.575H49.3667V8.40833C49.375 7.64167 49.6583 6.975 50.225 6.425Z" fill="white"/>
<path d="M98.475 16.5H89.1417H88.9167C88.0667 16.5 87.3833 16.225 86.8667 15.6667C86.35 15.1083 86.1 14.3833 86.1 13.4833V8.4C86.1 7.63334 86.3833 6.975 86.95 6.41667C87.5167 5.85834 88.1833 5.58334 88.95 5.58334H98.4667V2.99167H88.95C87.4667 2.99167 86.1833 3.525 85.1167 4.58334C84.0417 5.64167 83.5083 6.91667 83.5083 8.4V13.4833C83.5083 15.0833 84.0083 16.4167 85.0167 17.5C86.025 18.5833 87.3333 19.125 88.95 19.125H98.4667L98.475 16.5Z" fill="white"/>
<path d="M39.5167 19.125V8.475C39.5167 7.73333 39.225 7.075 38.6333 6.50833C38.0417 5.94167 37.3667 5.65833 36.6 5.65833H31.45C30.6833 5.65833 30.0167 5.94167 29.45 6.50833C28.8833 7.075 28.6 7.73333 28.6 8.475V19.1333H25.975V8.475C25.975 7.00833 26.525 5.73333 27.6167 4.64167C28.7083 3.55 29.9917 3 31.45 3H36.6C38.0667 3 39.3417 3.55 40.4333 4.64167C41.525 5.73333 42.075 7.01667 42.075 8.475V19.1333L39.5167 19.125Z" fill="white"/>
<path d="M132.758 8.44167C132.758 7.675 132.475 7.00834 131.908 6.44167C131.342 5.875 130.675 5.59167 129.908 5.59167H124.792C124.025 5.59167 123.358 5.875 122.792 6.44167C122.225 7.00834 121.942 7.675 121.942 8.44167V13.4583C121.942 14.375 122.2 15.1167 122.708 15.6667C123.225 16.225 123.917 16.5 124.792 16.5H129.842C130.65 16.5 131.342 16.2 131.908 15.6C132.475 15 132.758 14.2833 132.758 13.45V8.44167ZM129.908 19.125H124.792C123.175 19.125 121.858 18.575 120.858 17.4833C119.85 16.3917 119.35 15.0417 119.35 13.45V8.43333C119.35 6.96667 119.892 5.69167 120.975 4.61667C122.058 3.53334 123.333 2.99167 124.792 2.99167H129.908C131.375 2.99167 132.65 3.53334 133.725 4.61667C134.808 5.7 135.35 6.975 135.35 8.43333V13.45C135.35 14.9333 134.817 16.25 133.758 17.4C132.7 18.55 131.417 19.125 129.908 19.125Z" fill="white"/>
<path d="M153.058 19.125V8.475C153.058 7.73333 152.767 7.075 152.175 6.50833C151.583 5.94167 150.908 5.65833 150.142 5.65833H144.992C144.225 5.65833 143.558 5.94167 142.992 6.50833C142.425 7.075 142.142 7.73333 142.142 8.475V19.1333H139.517V8.475C139.517 7.00833 140.067 5.73333 141.158 4.64167C142.25 3.55 143.525 3 144.992 3H150.142C151.608 3 152.883 3.55 153.975 4.64167C155.067 5.73333 155.617 7.01667 155.617 8.475V19.1333L153.058 19.125Z" fill="white"/>
<path d="M116.958 2.99167H101.992V5.56667H108.192V19.125H110.758V5.56667H116.958V2.99167Z" fill="white"/>
</svg>
